<svg xmlns="http://www.w3.org/2000/svg" viewBox="0 0 100 100">
  <defs>
    <linearGradient id="rocketGradient" x1="0%" y1="0%" x2="100%" y2="100%">
      <stop offset="0%" style="stop-color:#3b82f6;stop-opacity:1" />
      <stop offset="100%" style="stop-color:#8b5cf6;stop-opacity:1" />
    </linearGradient>
  </defs>
  
  <!-- Rocket body -->
  <path d="M50 10 L60 70 L50 65 L40 70 Z" fill="url(#rocketGradient)" stroke="#1e40af" stroke-width="2"/>
  
  <!-- Rocket window -->
  <circle cx="50" cy="35" r="8" fill="#60a5fa" stroke="#1e40af" stroke-width="1.5"/>
  <circle cx="50" cy="35" r="5" fill="#93c5fd" opacity="0.7"/>
  
  <!-- Left fin -->
  <path d="M40 55 L30 75 L40 70 Z" fill="#6366f1" stroke="#1e40af" stroke-width="1.5"/>
  
  <!-- Right fin -->
  <path d="M60 55 L70 75 L60 70 Z" fill="#6366f1" stroke="#1e40af" stroke-width="1.5"/>
  
  <!-- Flame -->
  <path d="M45 70 L50 85 L55 70 L52 75 L50 90 L48 75 Z" fill="#f59e0b" opacity="0.9"/>
  <path d="M47 72 L50 82 L53 72 Z" fill="#fbbf24" opacity="0.8"/>
  
  <!-- Stars -->
  <circle cx="20" cy="20" r="1.5" fill="#fff" opacity="0.8"/>
  <circle cx="80" cy="25" r="1" fill="#fff" opacity="0.6"/>
  <circle cx="75" cy="45" r="1.5" fill="#fff" opacity="0.7"/>
  <circle cx="25" cy="50" r="1" fill="#fff" opacity="0.5"/>
</svg>
